<svg xmlns="http://www.w3.org/2000/svg"><defs>
<symbol id="engine" viewBox="0 0 64 64"><g fill="none" stroke="currentColor" stroke-width="2" stroke-linecap="round" stroke-linejoin="round"><path d="M12 35c6-24 15 24 22 0s15 23 18-5M12 23c6 24 15-24 22 0s15-23 18 5M18 27l4 12m8-13 4 10m8-11 4 12"/><circle cx="48" cy="48" r="5"/></g></symbol>
<symbol id="tune" viewBox="0 0 64 64"><g fill="none" stroke="currentColor" stroke-width="2" stroke-linecap="round"><path d="m13 47 16-16 13 8 10-17M32 28l9-9m-2-9a10 10 0 0 0 13 13l-8-8 2-7"/><circle cx="13" cy="47" r="5"/><circle cx="29" cy="31" r="5" fill="#b6d878"/></g></symbol>
<symbol id="assay" viewBox="0 0 64 64"><g fill="none" stroke="currentColor" stroke-width="2" stroke-linejoin="round"><path d="M10 36h44v18H10zM38 8l9 9-13 13-6-6zM27 29c-6 7-5 10 0 10s6-3 0-10"/><path d="M18 42h4m8 0h4m8 0h4m-28 6h4m8 0h4m8 0h4"/></g></symbol>
<symbol id="learn" viewBox="0 0 64 64"><g stroke="currentColor" stroke-width="2"><path d="m32 10-21 16 5 25 32 0 5-25zM11 26l37 25M53 26 16 51M32 10v28m-21-12 21 12 21-12m-21 12-16 13m16-13 16 13" fill="none"/><g fill="#e0f1ee"><circle cx="32" cy="10" r="4"/><circle cx="11" cy="26" r="4"/><circle cx="53" cy="26" r="4"/><circle cx="16" cy="51" r="4"/><circle cx="48" cy="51" r="4"/></g><circle cx="32" cy="38" r="6" fill="#b6d878"/></g></symbol>
<symbol id="loop" viewBox="0 0 64 64"><g fill="none" stroke="currentColor" stroke-width="2" stroke-linecap="round" stroke-linejoin="round"><path d="M12 26A22 22 0 0 1 45 13l-1-8m1 8-8 2M52 38A22 22 0 0 1 19 51l1 8m-1-8 8-2M26 22h12m-9 0v12l-9 14h24l-9-14V22"/></g></symbol>
<symbol id="variant" viewBox="0 0 64 64"><g fill="none" stroke="currentColor" stroke-width="2" stroke-linecap="round"><path d="M10 20c12-15 10 22 24 9s13-12 13-3M12 37c12 15 10-22 24-9M17 18l2 23m7-19 3 13"/><circle cx="45" cy="45" r="12" fill="#e0f1ee"/><path d="m39 45 4 4 8-9" stroke-width="3"/></g></symbol>
</defs></svg>
